PathFileType	4	(X/Y/Z)	C:\Users\WrightLab\Desktop\Jo\P3_6.trc
DataRate	CameraRate	NumFrames	NumMarkers	Units	OrigDataRate	OrigDataStartFrame	OrigNumFrames
100.00	100.00	       25	19	mm	100.00	1	       530
Frame#	Time	Headset_Front			Headset_Back			Headset_Left			Headset_Right			Left_Shoulder			Right_Shoulder			Sternum			C7			Left Elbow			Right Elbow			Left Wrist			Right Wrist			Left ASIS			Right ASIS			S2			Left Knee			Right Knee			Left Ankle			Right Ankle			
		X1	Y1	Z1	X2	Y2	Z2	X3	Y3	Z3	X4	Y4	Z4	X5	Y5	Z5	X6	Y6	Z6	X7	Y7	Z7	X8	Y8	Z8	X9	Y9	Z9	X10	Y10	Z10	X11	Y11	Z11	X12	Y12	Z12	X13	Y13	Z13	X14	Y14	Z14	X15	Y15	Z15	X16	Y16	Z16	X17	Y17	Z17	X18	Y18	Z18	X19	Y19	Z19	

1	0.000																-65.29732	1383.76001	2416.36963							-466.18649	1042.68384	2321.63599	-8.97734	1043.58069	2489.41846				38.98953	852.04321	2370.24731							-251.06963	993.19391	2535.95605				-40.83174	517.34155	2290.49414	-329.13263	181.63680	2623.80957	-10.89015	181.41695	2259.75293	
2	0.010																-62.10608	1382.51794	2409.70044							-464.51590	1042.05701	2316.75439	-6.51505	1042.49719	2483.75342				42.03865	852.34100	2365.91846							-248.36143	991.69397	2529.54077				-39.41989	515.45374	2285.63232	-328.79523	182.27086	2623.26514	-6.87158	181.55463	2245.40015	
3	0.020																-60.21399	1380.88904	2404.12085							-462.04111	1040.73950	2309.53442	-4.27289	1041.80261	2478.25830				44.60319	849.67749	2360.11450							-246.01306	990.41626	2524.12793				-37.21789	514.07330	2281.01953	-328.87881	183.27400	2622.60791	-3.06186	182.07909	2232.21436	
4	0.030																-58.36286	1379.95422	2398.04614							-460.32306	1040.10815	2304.48291	-1.03578	1039.97522	2471.13892				47.55768	849.27325	2353.32764							-242.85147	989.34265	2517.85132				-35.23148	512.16748	2276.55176	-328.55963	184.53140	2620.93921	-0.29714	182.24939	2219.73340	
5	0.040																-55.33099	1378.35120	2392.18652							-457.52130	1039.00610	2297.73267	1.40631	1039.16064	2465.09692				50.65421	847.78455	2348.74146							-240.00534	988.29944	2511.38086				-32.73356	510.26279	2271.38892	-331.49860	188.34193	2623.78564	1.40129	183.26675	2208.38794	
6	0.050																-52.75729	1377.32568	2386.51611				-232.26123	1431.75720	2399.58569	-455.64267	1037.98450	2291.96240	4.43772	1037.61548	2458.79883				52.71806	847.21436	2340.14697							-236.87341	986.67700	2504.17651				-30.76199	507.88339	2264.00000	-331.53366	187.57664	2622.36230	4.38256	182.87640	2199.65186	
7	0.060																-50.20494	1376.01794	2379.79395				-229.59872	1430.14563	2393.94678	-453.29895	1037.21606	2285.70581	7.95874	1036.07825	2451.60840				56.06923	845.09827	2332.86768							-233.86209	984.91882	2496.99365				-28.45475	506.40189	2259.11914	-331.26456	189.01535	2620.39697	4.71746	181.11961	2190.09131	
8	0.070																-47.76669	1374.43542	2373.79810				-226.50450	1428.97290	2388.11377	-450.84488	1035.81042	2278.67114	11.17632	1034.88318	2444.82349				58.80093	844.29407	2326.08008							-230.60579	983.62482	2490.23828				-26.29869	504.98779	2251.88257	-331.18726	190.39676	2619.24561	6.67718	179.15031	2183.95630	
9	0.080																-44.48634	1373.69031	2367.56567				-223.55556	1428.04028	2382.60864	-448.82660	1035.28674	2273.41772	14.21078	1033.92859	2438.18726				62.44994	842.16876	2318.65430							-227.18431	982.29401	2483.18115				-24.89423	503.72144	2243.64111	-329.83817	189.71173	2615.03003	7.34161	177.08270	2178.21265	
10	0.090																-41.38559	1372.78418	2361.25293				-220.53366	1426.94800	2377.16992	-446.01169	1033.91504	2265.67261	17.66699	1032.32446	2431.21826				65.60935	842.49542	2311.85205							-223.86118	981.42468	2476.06787	-325.84982	479.89319	2442.51343	-22.18378	502.46719	2236.70044	-329.54532	191.21268	2613.64258	7.77621	175.10486	2173.78931	
11	0.100				-197.95898	1649.18909	2337.58716										-37.93321	1371.14038	2353.89160				-216.92856	1425.32104	2370.38452	-443.93835	1033.51489	2260.31958	20.96127	1031.62402	2423.83740				68.47237	840.64606	2304.10791							-220.62810	980.00269	2468.34595	-324.39609	479.64276	2438.27197	-20.79432	500.89682	2227.00659	-331.02423	196.00294	2614.58252	8.58100	171.53900	2171.32373	
12	0.110				-194.43919	1647.99744	2331.33276										-35.12513	1369.98730	2347.88794				-213.98271	1424.39526	2364.50244	-440.74908	1033.04199	2252.97192	24.62784	1030.02991	2416.70313	-388.53192	873.04486	2129.89307	71.48758	839.58838	2293.99365							-217.05615	978.34381	2460.27856	-322.14166	479.80869	2431.71704	-18.70956	499.53555	2218.96045	-328.88525	194.51904	2609.84961	8.83614	168.85252	2169.16748	
13	0.120				-190.79312	1647.58325	2324.55542										-31.55988	1368.69482	2340.84131				-210.72112	1423.49475	2358.86523	-438.63727	1031.95679	2244.66553	28.10312	1029.33545	2409.26782	-386.13477	872.93341	2122.20874	75.46105	839.64618	2288.12549							-213.11378	976.69617	2452.18286	-320.56903	479.28094	2425.47192	-17.06940	498.16479	2210.23096	-328.80106	196.23070	2607.07324	8.88219	167.08836	2163.25366	
14	0.130				-187.44093	1646.96899	2318.23730										-28.03851	1367.78870	2334.01685				-206.99284	1422.07385	2352.20630	-435.29495	1031.92615	2238.08740	31.58022	1027.83826	2401.67383	-384.11255	874.53070	2111.22974	78.94275	838.02014	2280.72754							-209.03268	974.93225	2444.10815	-318.05383	478.87448	2419.21069	-14.03854	496.44882	2203.13721	-328.54034	199.21172	2603.98022	9.81137	165.20732	2160.50146	
15	0.140				-184.25882	1646.44299	2312.16162										-24.76963	1367.70605	2328.21533				-203.48950	1421.63342	2345.67627	-432.48746	1031.24927	2230.02100	35.46876	1026.83936	2393.81738	-381.82367	875.41296	2101.53760	82.23140	837.27979	2273.25098							-205.40894	974.49384	2435.83105	-315.77829	478.91467	2412.55811	-12.69202	495.68585	2193.62183	-328.04315	202.37299	2601.40479	10.50332	164.38573	2157.11255	
16	0.150				-180.39848	1646.29736	2305.02856										-21.07913	1366.79846	2321.19092				-200.25197	1421.22229	2339.88867	-429.46259	1031.06873	2222.25415	39.43199	1025.85315	2385.82275	-379.67197	876.25024	2095.92090	85.55439	836.76788	2262.35376							-201.71631	973.37238	2427.25024	-313.46796	478.73328	2404.79004	-9.96217	495.48807	2186.22144	-328.58600	207.56293	2600.51782	10.97425	163.18391	2153.63208	
17	0.160				-176.85829	1646.18433	2298.09473										-17.25684	1366.21838	2314.36670				-196.65622	1420.83813	2333.19629	-426.09009	1031.07471	2214.20435	42.97930	1025.03528	2378.06763	-377.09464	878.16864	2083.06836	89.70885	836.49481	2254.95947	-280.21860	868.22461	2196.45898				-198.06285	972.43976	2418.33960	-311.02844	479.33142	2396.87549	-8.20970	496.34036	2176.20581	-325.66858	206.60950	2593.00610	11.37396	162.18236	2147.56616	
18	0.170				-173.29561	1646.84119	2290.99927										-14.17459	1366.54041	2308.12720				-193.26453	1420.40894	2326.61670	-423.72833	1031.02979	2205.96118	46.59482	1025.13281	2370.16870	-374.76855	880.27850	2071.76929	93.44431	836.60376	2247.58691	-275.90381	867.79742	2186.04736				-194.40201	972.48016	2410.15234	-307.90018	478.67346	2387.35229	-5.93273	497.05145	2166.90723	-326.79376	212.38884	2590.61255	12.00915	161.88193	2146.29321	
19	0.180				-169.69746	1647.06726	2283.98389										-10.42218	1366.03943	2301.10620				-190.12814	1420.88855	2320.70117	-420.04202	1031.55896	2196.76294	50.46125	1024.87183	2361.49756	-372.40643	881.67511	2063.03003	96.97806	836.22192	2239.49048	-271.52585	867.30725	2178.43066				-190.48990	971.90472	2400.94604	-305.29089	478.69443	2377.80933	-4.14754	497.35492	2156.67114	-326.17151	216.27403	2586.42188	12.41669	161.26102	2141.67798	
20	0.190				-166.06221	1647.81165	2276.45020										-7.66750	1366.90503	2295.43921				-186.82790	1420.82629	2313.61865	-417.01022	1032.56738	2188.74365	54.54124	1025.04456	2353.40186	-369.94763	883.14386	2054.17920	99.94667	837.39081	2230.09058	-266.90268	868.40509	2172.06934				-187.17133	972.42383	2391.73828	-301.87592	478.25592	2366.02734	-2.80690	498.32129	2145.60864	-324.09314	218.48943	2579.90381	13.25396	161.09563	2140.26538	
21	0.200				-162.21539	1648.67847	2268.97974										-3.88004	1367.33130	2288.12891				-183.68361	1421.94934	2307.31104	-414.07190	1033.89453	2180.92358	57.77647	1025.94189	2345.08765	-367.94125	886.26001	2042.65063	103.51119	837.86853	2219.40796	-262.60828	868.46057	2160.82739				-183.58984	973.06030	2383.21631	-299.29379	477.58694	2353.73682	-0.84086	498.33911	2137.23560	-321.76846	220.49332	2571.79956	13.11613	160.90741	2135.51978	
22	0.210				-158.84805	1649.85876	2261.66333										-0.65912	1368.82471	2282.03223				-180.38829	1422.59839	2300.62378	-410.66650	1035.03125	2171.05249	61.85646	1026.20093	2335.77783	-365.67081	888.92206	2031.50549	107.34163	839.37299	2212.92139	-258.28732	870.43365	2149.98901				-179.98540	973.51776	2374.05151	-296.03082	477.24393	2342.20605	0.98469	498.73895	2129.12744	-321.31738	226.18718	2566.90796	13.45600	161.27094	2133.42212	
23	0.220				-155.28143	1650.95288	2254.07324	-273.05688	1583.97815	2161.01611							2.74543	1369.72388	2275.73999				-177.44807	1423.42981	2294.65503	-408.75790	1035.58545	2165.63843	65.77367	1027.45190	2327.54980	-363.65512	891.54236	2020.72046	110.18907	840.57776	2201.48218	-253.94585	871.28174	2141.21582				-176.34444	973.81421	2364.51660	-293.12555	475.61554	2328.81543	2.64746	499.31305	2122.09131	-319.09448	230.92235	2559.03174	14.00087	159.49838	2130.87476	
24	0.230				-151.74173	1652.30042	2246.45728	-269.95703	1584.88513	2154.08813							5.62990	1371.46533	2269.45386				-174.28806	1424.13232	2288.03662	-405.55420	1037.07227	2157.35571	69.26252	1029.00757	2319.56250	-362.04120	895.13818	2008.16882	113.69835	841.61456	2192.51685	-249.52887	873.03186	2130.58423				-172.58267	974.79443	2355.53223	-290.98090	475.37628	2313.19727	4.53864	498.81165	2114.22339	-317.24323	233.79356	2549.89282	14.19632	159.07745	2130.63306	
25	0.240				-148.30461	1653.75757	2238.63013	-267.25540	1586.19910	2147.32788							8.40171	1372.95886	2263.79712				-171.15631	1425.02942	2281.13208	-402.25162	1038.72791	2147.47241	73.12624	1029.91565	2310.41577	-360.15628	898.61255	1999.61487	116.49399	843.93756	2181.17627	-245.39830	875.02124	2122.02686				-168.88593	975.44739	2346.31079	-288.30710	473.86655	2297.90161	7.13872	498.21320	2109.51904	-314.73288	238.95602	2540.84375	14.41551	158.96642	2129.85620	
